<svg width="647" height="138" viewBox="0 0 647 138" fill="none" xmlns="http://www.w3.org/2000/svg">
<path d="M149.227 97.0451L170.61 40.9824H178.859L200.162 97.0451H192.714L186.787 81.9078H162.362L156.435 97.0451H149.227ZM164.444 75.5806H184.707L174.536 48.5911L164.444 75.5806Z" fill="white"/>
<path d="M231.114 56.1973H237.682V97.0426H231.995L231.114 91.5963C228.712 94.6398 224.787 97.5231 218.059 97.5231C209.089 97.5231 201.961 92.4787 201.961 78.9433V56.1973H208.528V78.5428C208.528 87.0311 212.373 91.5176 219.181 91.5176C226.629 91.5176 231.114 85.8311 231.114 76.6206V56.1973Z" fill="white"/>
<path d="M248.187 62.2041H240.82V56.1972H248.187V44.7441H254.755V56.1972H265.327V62.2041H254.755V86.3117C254.755 89.7542 255.956 91.0371 259.48 91.0371H265.968V97.0439H258.84C250.991 97.0439 248.187 93.6 248.187 86.3917V62.2041Z" fill="white"/>
<path d="M306.161 74.2991V97.0451H299.593V74.6996C299.593 66.2113 295.508 61.7248 288.46 61.7248C280.852 61.7248 276.126 67.4099 276.126 76.6204V97.0437H269.559V40.9824H276.126V62.9275C278.529 59.0831 282.694 55.7179 289.582 55.7179C298.712 55.7179 306.161 60.7637 306.161 74.2991Z" fill="white"/>
<path d="M312.262 67.7311C312.262 51.7929 320.912 40.5 333.565 40.5C346.139 40.5 354.789 51.7929 354.789 67.7311V70.2941C354.789 87.0318 346.139 97.5238 333.565 97.5238C320.912 97.5238 312.262 87.0318 312.262 70.2941V67.7311ZM347.981 67.9714C347.981 54.6762 342.215 46.667 333.565 46.667C324.836 46.667 319.07 54.6762 319.07 67.9714V70.0538C319.07 83.349 324.836 91.3581 333.565 91.3581C342.216 91.3581 347.981 83.349 347.981 70.0538V67.9714Z" fill="white"/>
<path d="M421.513 76.6218C421.513 89.1161 413.184 97.5257 401.891 97.5257C395.003 97.5257 390.358 94.7239 387.876 90.7994L386.994 97.0451H381.309V40.9824H387.876V62.7659C390.599 59.0003 395.003 55.7179 401.891 55.7179C413.182 55.7179 421.513 63.328 421.513 76.6218ZM414.784 76.6218C414.784 67.7316 409.338 61.5659 401.249 61.5659C393.24 61.5659 387.793 67.733 387.793 76.463C387.793 85.4319 393.24 91.6804 401.249 91.6804C409.338 91.679 414.784 85.5119 414.784 76.6218Z" fill="white"/>
<path d="M421.246 56.1973H428.214L440.789 88.7931L452.961 56.1973H459.929L441.107 103.93C438.546 110.498 437.023 113.059 431.256 113.059H423.407V107.053H429.253C433.018 107.053 433.658 106.092 435.179 102.247L437.182 97.2815L421.246 56.1973Z" fill="white"/>
<path d="M509.034 97.5244C493.256 97.5244 482.285 85.512 482.285 69.0132C482.285 52.5157 493.256 40.502 509.034 40.502C524.813 40.502 535.785 52.5157 535.785 69.0132C535.785 85.5106 524.813 97.5244 509.034 97.5244ZM509.034 91.117C520.728 91.117 528.657 81.9065 528.657 69.0118C528.657 56.117 520.728 46.9065 509.034 46.9065C497.341 46.9065 489.412 56.117 489.412 69.0118C489.412 81.9065 497.342 91.117 509.034 91.117Z" fill="white"/>
<path d="M542.337 40.9824H548.905V77.9032L569.408 56.1984H577.496L561.558 73.0964L578.618 97.0437H570.688L557.153 77.8218L548.903 86.3115V97.0424H542.336V40.9824H542.337Z" fill="white"/>
<path d="M586.523 62.2041H579.156V56.1972H586.523V44.7441H593.092V56.1972H603.663V62.2041H593.092V86.3117C593.092 89.7542 594.292 91.0371 597.818 91.0371H604.304V97.0439H597.176C589.327 97.0439 586.523 93.6 586.523 86.3917V62.2041Z" fill="white"/>
<path d="M646.482 91.0352V97.0421H642.878C637.433 97.0421 635.591 94.7194 635.509 90.7148C632.948 94.3991 628.863 97.5226 621.815 97.5226C612.845 97.5226 606.758 93.0375 606.758 85.589C606.758 77.4196 612.444 72.8544 623.177 72.8544H635.19V70.0512C635.19 64.7666 631.426 61.5629 625.019 61.5629C619.252 61.5629 615.408 64.286 614.607 68.4508H608.039C609 60.4402 615.489 55.7148 625.339 55.7148C635.751 55.7148 641.758 60.9222 641.758 70.4517V88.3121C641.758 90.4746 642.559 91.0366 644.401 91.0366L646.482 91.0352ZM635.19 78.3807H622.536C616.691 78.3807 613.407 80.5432 613.407 85.1885C613.407 89.1931 616.849 91.9162 622.297 91.9162C630.466 91.9162 635.192 87.1908 635.192 80.383V78.3807H635.19Z" fill="white"/>
<path d="M7.2635 59.7175C29.8135 56.0029 47.4751 37.3609 51.1897 14.8248L52.4325 3.98486C52.7363 2.25875 51.5764 -0.130188 49.3946 0.0355184C32.3543 1.36117 16.2945 6.98139 7.33255 10.6407C2.89988 12.4497 0 16.7719 0 21.5636V56.9143C0 59.0133 1.87801 60.6013 3.94935 60.2699L7.2635 59.7313V59.7175Z" fill="white"/>
<path d="M62.0595 14.8112C65.7741 37.3611 83.4358 55.9893 105.986 59.7039L109.3 60.2425C111.371 60.5877 113.249 58.9858 113.249 56.8869V21.5361C113.249 16.7445 110.349 12.4361 105.917 10.6133C96.9685 6.95396 80.8949 1.33374 63.8547 0.0080877C61.6729 -0.157619 60.5406 2.25894 60.8029 3.95743L62.0457 14.7974L62.0595 14.8112Z" fill="white"/>
<path d="M105.973 69.6058C75.1654 75.6817 60.8594 96.1603 60.8594 134.936C60.8594 136.883 62.7926 138.222 64.4083 137.145C78.5762 127.589 109.757 102.65 112.974 71.4424C113.099 67.5069 108.183 69.3573 105.973 69.6058Z" fill="white"/>
<path d="M7.28469 69.6058C38.0924 75.6817 52.3985 96.1603 52.3985 134.936C52.3985 136.883 50.4652 138.222 48.8496 137.145C34.6816 127.589 3.50105 102.65 0.283563 71.4424C0.159283 67.5069 5.07526 69.3573 7.28469 69.6058Z" fill="white"/>
</svg>
